# xmcd
#
# Track frame offsets: 
#        150
#        15241
#        31081
#        49745
#        67181
#        84821
#        109969
#        128774
#        140809
#        158319
#        173825
#        196805
#        211498
#        229814
#        251030
#        269119
#        288772
#        310598
#
# Disc length: 4494 seconds
#
# Revision: 1
# Processed by: cddbd v1.5.2PL0 Copyright (c) Steve Scherf et al.
# Submitted via: ExactAudioCopy v0.99pb5
#
DISCID=f4118c12
DTITLE=INOUE YOSUI - GOLDEN BEST Disc1
DYEAR=1999
DGENRE=Pop
TTITLE0=Syonen jidai
TTITLE1=Arigatou
TTITLE2=Make-up Shadow
TTITLE3=Agia no junshin
TTITLE4=Saigo no news
TTITLE5=Kasa ga nai
TTITLE6=Koori no sekai
TTITLE7=Yume no nakahe
TTITLE8=River side hotel
TTITLE9=Kokoro moyou
TTITLE10=5gatu no wakare
TTITLE11=Isso serenade
TTITLE12=Crazy love
TTITLE13=Kazarijanainoyo namidaha
TTITLE14=Jealousy
TTITLE15=Aozora Hitorikiri
TTITLE16=Atarasii rhapsody
TTITLE17=Nagai saka no e no frame
EXTD=
EXTT0=
EXTT1=
EXTT2=
EXTT3=
EXTT4=
EXTT5=
EXTT6=
EXTT7=
EXTT8=
EXTT9=
EXTT10=
EXTT11=
EXTT12=
EXTT13=
EXTT14=
EXTT15=
EXTT16=
EXTT17=
PLAYORDER=
